<svg width="18" height="19" viewBox="0 0 18 19" fill="none" xmlns="http://www.w3.org/2000/svg">
<path d="M1.37453 9.1644C1.27294 8.55487 1.74298 8 2.36092 8H15.6391C16.257 8 16.7271 8.55487 16.6255 9.1644L15.2921 17.1644C15.2118 17.6466 14.7946 18 14.3057 18H3.69425C3.20541 18 2.78822 17.6466 2.70786 17.1644L1.37453 9.1644Z" stroke="#26B087" stroke-width="2"/>
<mask id="path-2-inside-1_69_681" fill="white">
<path d="M4 4C4 1.79086 5.79086 0 8 0H10C12.2091 0 14 1.79086 14 4V5H4V4Z"/>
</mask>
<path d="M2 4C2 0.686292 4.68629 -2 8 -2H10C13.3137 -2 16 0.686292 16 4H12C12 2.89543 11.1046 2 10 2H8C6.89543 2 6 2.89543 6 4H2ZM14 5H4H14ZM2 5V4C2 0.686292 4.68629 -2 8 -2V2C6.89543 2 6 2.89543 6 4V5H2ZM10 -2C13.3137 -2 16 0.686292 16 4V5H12V4C12 2.89543 11.1046 2 10 2V-2Z" fill="#26B087" mask="url(#path-2-inside-1_69_681)"/>
<rect x="10" y="11" width="2" height="4" rx="1" fill="#26B087"/>
<rect x="6" y="11" width="2" height="4" rx="1" fill="#26B087"/>
</svg>
