<svg width="18" height="18" viewBox="0 0 18 18" fill="none" xmlns="http://www.w3.org/2000/svg">
<mask id="path-1-inside-1_70_5238" fill="white">
<path d="M0 2C0 0.89543 0.895431 0 2 0H6C7.10457 0 8 0.895431 8 2V16C8 17.1046 7.10457 18 6 18H2C0.895431 18 0 17.1046 0 16V2Z"/>
</mask>
<path d="M2 2H6V-2H2V2ZM6 2V16H10V2H6ZM6 16H2V20H6V16ZM2 16V2H-2V16H2ZM2 16H-2C-2 18.2091 -0.209139 20 2 20V16ZM6 16V20C8.20914 20 10 18.2091 10 16H6ZM6 2H10C10 -0.209139 8.20914 -2 6 -2V2ZM2 -2C-0.209139 -2 -2 -0.209139 -2 2H2V2V-2Z" fill="#26B087" mask="url(#path-1-inside-1_70_5238)"/>
<mask id="path-3-inside-2_70_5238" fill="white">
<path d="M10 10C10 8.89543 10.8954 8 12 8H16C17.1046 8 18 8.89543 18 10V16C18 17.1046 17.1046 18 16 18H12C10.8954 18 10 17.1046 10 16V10Z"/>
</mask>
<path d="M12 10H16V6H12V10ZM16 10V16H20V10H16ZM16 16H12V20H16V16ZM12 16V10H8V16H12ZM12 16H8C8 18.2091 9.79086 20 12 20V16ZM16 16V20C18.2091 20 20 18.2091 20 16H16ZM16 10H20C20 7.79086 18.2091 6 16 6V10ZM12 6C9.79086 6 8 7.79086 8 10H12V10V6Z" fill="#26B087" mask="url(#path-3-inside-2_70_5238)"/>
</svg>
