<svg width="21" height="18" viewBox="0 0 21 18" fill="none" xmlns="http://www.w3.org/2000/svg">
<path d="M10.4109 2.97471L9.69108 2.28053L9.71624 2.25444L10.4109 2.97471ZM10.4109 2.97471L11.1307 2.28053L11.1055 2.25444L10.4109 2.97471ZM11.2752 16.7865L11.2752 16.7866C11.1191 16.9089 10.9405 16.9773 10.7598 16.9952C10.4722 17.0238 10.1707 16.9258 9.93924 16.6858L2.2818 8.74582C0.572731 6.97368 0.572732 4.08597 2.28181 2.31383C3.97123 0.562057 6.69481 0.562056 8.38424 2.31383L9.69108 3.6689L10.4109 4.41526L11.1307 3.6689L12.3115 2.44451C14.0705 0.620558 16.907 0.620557 18.666 2.44451C20.4447 4.28883 20.4447 7.29355 18.666 9.13787L11.3867 16.6858C11.3507 16.7231 11.3135 16.7566 11.2752 16.7865Z" stroke="#26B087" stroke-width="2"/>
</svg>
