<svg width="156" height="51" viewBox="0 0 156 51" fill="none" xmlns="http://www.w3.org/2000/svg">
<path d="M20.887 45.7692H156V51H20.887V45.7692Z" fill="#4B6BDA"/>
<path d="M15.6653 40.5385H20.887V51H18.9289C17.1264 51 15.6653 49.5363 15.6653 47.7308V40.5385Z" fill="#4B6BDA"/>
<path d="M23.4979 0C24.9399 6.31383e-08 26.1088 1.17095 26.1088 2.61538V10.4615H20.887V2.61538C20.887 1.17095 22.056 -6.31383e-08 23.4979 0Z" fill="#4B6BDA"/>
<path d="M13.0544 0C14.4963 6.31383e-08 15.6653 1.17095 15.6653 2.61538V10.4615H10.4435L10.4435 2.61538C10.4435 1.17095 11.6124 -6.31383e-08 13.0544 0Z" fill="#4B6BDA"/>
<path d="M2.61088 15.6923H33.9414V34C33.9414 37.6111 31.0191 40.5385 27.4142 40.5385H9.13807C5.5332 40.5385 2.61088 37.6111 2.61088 34V15.6923Z" fill="#4B6BDA"/>
<path d="M0 11.7692C0 11.047 0.584465 10.4615 1.30544 10.4615H35.2469C35.9678 10.4615 36.5523 11.047 36.5523 11.7692V14.3846C36.5523 15.1068 35.9678 15.6923 35.2469 15.6923H1.30544C0.584465 15.6923 0 15.1068 0 14.3846V11.7692Z" fill="#4B6BDA"/>
<path d="M54.9712 32.5901V27.5433H45.4456C44.8881 27.5433 44.3645 27.4411 43.875 27.2368C43.3855 27.0188 42.9571 26.7328 42.59 26.3786C42.2364 26.0108 41.9508 25.5817 41.7333 25.0913C41.5293 24.601 41.4273 24.0765 41.4273 23.518V18.8798C41.4273 18.3213 41.5293 17.7969 41.7333 17.3065C41.9508 16.8161 42.2364 16.3938 42.59 16.0397C42.9571 15.6719 43.3855 15.3858 43.875 15.1815C44.3645 14.9635 44.8881 14.8546 45.4456 14.8546H58.1532V18.8798H45.4456V23.518H54.9712C55.5288 23.518 56.0455 23.627 56.5214 23.845C57.011 24.0493 57.4393 24.3353 57.8065 24.7031C58.1736 25.0573 58.4592 25.4796 58.6632 25.97C58.8808 26.4603 58.9895 26.9848 58.9895 27.5433V32.5901C58.9895 33.1486 58.8808 33.6731 58.6632 34.1635C58.4592 34.6538 58.1736 35.0829 57.8065 35.4507C57.4393 35.8049 57.011 36.0909 56.5214 36.3089C56.0455 36.5132 55.5288 36.6154 54.9712 36.6154H41.4273V32.5901H54.9712Z" fill="#26B087"/>
<path d="M64.0073 14.8546H69.3107V8.15265H73.329V14.8546H80.4681V18.8798H73.329V32.5901H80.4681V36.6154H73.329C72.785 36.6154 72.2683 36.5132 71.7788 36.3089C71.2892 36.0909 70.8609 35.8049 70.4937 35.4507C70.1266 35.0829 69.8342 34.6538 69.6166 34.1635C69.4127 33.6731 69.3107 33.1486 69.3107 32.5901V18.8798H64.0073V14.8546Z" fill="#26B087"/>
<path d="M105.965 32.5901C105.965 33.1486 105.856 33.6731 105.639 34.1635C105.435 34.6538 105.149 35.0829 104.782 35.4507C104.428 35.8049 104.007 36.0909 103.517 36.3089C103.041 36.5132 102.525 36.6154 101.967 36.6154H91.1768C90.6329 36.6154 90.1161 36.5132 89.6266 36.3089C89.137 36.0909 88.7087 35.8049 88.3415 35.4507C87.988 35.0829 87.7024 34.6538 87.4848 34.1635C87.2809 33.6731 87.1789 33.1486 87.1789 32.5901V18.8798C87.1789 18.3213 87.2809 17.7969 87.4848 17.3065C87.7024 16.8161 87.988 16.3938 88.3415 16.0397C88.7087 15.6719 89.137 15.3858 89.6266 15.1815C90.1161 14.9635 90.6329 14.8546 91.1768 14.8546H101.967C102.525 14.8546 103.041 14.9635 103.517 15.1815C104.007 15.3858 104.428 15.6719 104.782 16.0397C105.149 16.3938 105.435 16.8161 105.639 17.3065C105.856 17.7969 105.965 18.3213 105.965 18.8798V32.5901ZM91.1768 18.8798V32.5901H101.967V18.8798H91.1768Z" fill="#26B087"/>
<path d="M116.674 18.8798V36.6154H112.676V14.8546H116.674V18.6959C116.701 18.1647 116.823 17.6675 117.041 17.2043C117.258 16.7276 117.544 16.3189 117.897 15.9784C118.265 15.6242 118.686 15.3518 119.162 15.1611C119.638 14.9567 120.148 14.8546 120.692 14.8546H124.955C125.513 14.8546 126.029 14.9635 126.505 15.1815C126.995 15.3858 127.423 15.6719 127.79 16.0397C128.157 16.3938 128.443 16.8161 128.647 17.3065C128.865 17.7969 128.973 18.3213 128.973 18.8798V22.5577H124.955V18.8798H116.674Z" fill="#26B087"/>
<path d="M152.349 27.7885H137.969V32.5901H152.349V36.6154H137.969C137.425 36.6154 136.908 36.5132 136.418 36.3089C135.929 36.0909 135.501 35.8049 135.133 35.4507C134.78 35.0829 134.494 34.6538 134.277 34.1635C134.073 33.6731 133.971 33.1486 133.971 32.5901V18.8798C133.971 18.3213 134.073 17.7969 134.277 17.3065C134.494 16.8161 134.78 16.3938 135.133 16.0397C135.501 15.6719 135.929 15.3858 136.418 15.1815C136.908 14.9635 137.425 14.8546 137.969 14.8546H148.331C148.888 14.8546 149.412 14.9635 149.901 15.1815C150.391 15.3858 150.812 15.6719 151.166 16.0397C151.533 16.3938 151.819 16.8161 152.022 17.3065C152.24 17.7969 152.349 18.3213 152.349 18.8798V27.7885ZM137.969 18.8798V23.7632H148.331V18.8798H137.969Z" fill="#26B087"/>
<path d="M26.9451 27.7885H12.5649V32.5901H26.9451V36.6154H12.5649C12.0209 36.6154 11.5042 36.5132 11.0146 36.3089C10.5251 36.0909 10.0968 35.8049 9.7296 35.4507C9.37605 35.0829 9.09048 34.6538 8.87291 34.1635C8.66893 33.6731 8.56695 33.1486 8.56695 32.5901V18.8798C8.56695 18.3213 8.66893 17.7969 8.87291 17.3065C9.09048 16.8161 9.37605 16.3938 9.7296 16.0397C10.0968 15.6719 10.5251 15.3858 11.0146 15.1815C11.5042 14.9635 12.0209 14.8546 12.5649 14.8546H22.9268C23.4843 14.8546 24.0078 14.9635 24.4974 15.1815C24.9869 15.3858 25.4085 15.6719 25.762 16.0397C26.1292 16.3938 26.4147 16.8161 26.6187 17.3065C26.8363 17.7969 26.9451 18.3213 26.9451 18.8798V27.7885ZM12.5649 18.8798V23.7632H22.9268V18.8798H12.5649Z" fill="white"/>
</svg>
